<?xml version="1.0" encoding="UTF-8"?> <svg xmlns="http://www.w3.org/2000/svg" width="365" height="146" viewBox="0 0 365 146" fill="none"><path d="M284.44 64.51C275.32 64.51 266.59 67.72 259.56 73.72C251.07 80.98 245.56 91.8 244.84 102.67C243.54 122.12 255.82 135.38 266.73 140.83C267.56 141.24 275.11 144.87 284.97 144.87C291.43 144.87 297.54 143.34 303.13 140.32C310.11 136.55 316.09 130.5 320.9 122.35L324.07 116.97L325.27 123.09C325.54 124.44 325.79 125.82 326.03 127.23C326.83 131.88 327.66 139.13 327.87 144.71H338.33C338.13 138.54 337.23 130.68 336.33 125.47C334.79 116.47 332.68 108.34 330.05 101.32L329.78 100.6L329.98 99.86C331.96 92.58 333.5 84.34 334.56 75.37C336.68 57.31 339.81 22.98 340.02 -0.0100098H329.57C329.36 22.53 326.28 56.34 324.18 74.15C323.93 76.25 323.66 78.3 323.36 80.29L322.56 85.66L319.16 81.43C311.17 71.46 300.69 65.83 288.01 64.67C286.81 64.56 285.62 64.51 284.44 64.51ZM284.96 134.38C277.29 134.38 271.48 131.52 271.39 131.47C262.97 127.27 254.31 117.67 255.27 103.36C255.8 95.36 260.05 87.04 266.35 81.66C270.31 78.28 277.24 74.19 287.06 75.08C300.89 76.34 311.43 84.81 318.36 100.26L318.74 101.09L318.46 101.96C313.75 116.58 306.92 126.4 298.16 131.12C293.62 133.57 289.03 134.38 284.96 134.38Z" fill="black"></path><path d="M223.64 35.41C218.63 35.41 214.56 39.49 214.56 44.49C214.56 49.49 218.63 53.57 223.64 53.57C228.65 53.57 232.72 49.5 232.72 44.49C232.72 39.48 228.65 35.41 223.64 35.41Z" fill="black"></path><path d="M118.64 35.41C113.63 35.41 109.56 39.49 109.56 44.49C109.56 49.49 113.63 53.57 118.64 53.57C123.65 53.57 127.72 49.5 127.72 44.49C127.72 39.48 123.65 35.41 118.64 35.41Z" fill="black"></path><path d="M354.96 126.65C349.95 126.65 345.88 130.73 345.88 135.73C345.88 140.73 349.95 144.81 354.96 144.81C359.97 144.81 364.04 140.74 364.04 135.73C364.04 130.72 359.97 126.65 354.96 126.65Z" fill="black"></path><path d="M222.35 145.34H232.8V92.73C232.8 91.68 232.67 82.38 226.36 76.04C223.37 73.04 219.21 71.2 214.46 70.74V81.33C219.79 82.49 222.27 87.6 222.34 92.67V145.34H222.35Z" fill="black"></path><path d="M79.1402 117.19L82.4602 127.92C85.7902 138.54 91.3902 144.17 99.5602 145.06V134.43C96.3702 133.54 94.2602 130.61 92.4402 124.79C92.0002 123.39 91.5602 121.96 91.1102 120.51C89.3802 114.9 87.4302 108.55 85.0302 102.39L84.7402 101.65L84.9502 100.89C87.0702 93.35 88.7002 84.77 89.8102 75.38C91.9302 57.33 95.0602 23 95.2702 0H84.8202C84.6102 22.55 81.5302 56.35 79.4302 74.16C79.1502 76.53 78.8402 78.83 78.4902 81.06L77.6302 86.61L74.2502 82.13C66.2702 71.56 56.1302 65.85 43.2602 64.68C32.8502 63.73 22.7502 66.94 14.8102 73.72C6.32016 80.97 0.820161 91.8 0.0901608 102.67C-1.20984 122.12 11.0702 135.38 21.9802 140.83C23.8702 141.77 40.9102 149.76 58.3802 140.32C65.4902 136.48 71.5602 130.27 76.4202 121.88L79.1402 117.18V117.19ZM40.2202 134.38C32.5502 134.38 26.7402 131.52 26.6502 131.47C18.2302 127.27 9.57016 117.67 10.5302 103.36C11.0602 95.36 15.3102 87.04 21.6102 81.66C25.5702 78.28 32.5102 74.2 42.3202 75.08C60.1002 76.7 68.1802 90.01 73.2402 101.43L73.6102 102.27L73.3202 103.14C68.6202 117.11 61.9202 126.52 53.4102 131.11C48.8702 133.56 44.2802 134.37 40.2102 134.37" fill="black"></path><path d="M107.87 134.52L107.84 145.07C112.56 144.6 116.56 142.71 119.58 139.53C125.98 132.78 125.92 122.59 125.85 120.61L125.9 70.94H115.45L115.4 120.68V121.04C115.4 121.04 115.65 128.49 112 132.33C110.93 133.46 109.57 134.19 107.87 134.52Z" fill="black"></path><path d="M130.71 70.93L159.29 138.91C160.6 142.15 163.45 144.44 166.75 144.92C169.72 145.34 172.6 144.33 174.89 142.03C177.55 139.37 185.98 120.51 199.94 85.97L200.1 85.56C200.69 84.26 202.43 81.58 207.09 81.14V70.66C195.4 71.28 191.28 79.42 190.26 82.03C182.72 100.67 174.81 119.33 170.56 128.48L168.29 133.36L142.17 70.94H130.71V70.93Z" fill="black"></path></svg> 