<?xml version="1.0" encoding="UTF-8"?> <svg xmlns="http://www.w3.org/2000/svg" width="248" height="300" viewBox="0 0 248 300" fill="none"><path d="M82.9408 133.59C64.0562 133.59 45.9792 140.237 31.4223 152.661C13.8423 167.694 2.43281 190.099 0.941922 212.607C-1.74996 252.882 23.678 280.339 46.2691 291.624C47.9878 292.473 63.6214 299.99 84.0383 299.99C97.4149 299.99 110.067 296.822 121.642 290.568C136.095 282.762 148.478 270.234 158.438 253.358L165.002 242.218L167.487 254.891C168.046 257.686 168.563 260.544 169.06 263.463C170.717 273.092 172.436 288.104 172.87 299.659H194.53C194.116 286.883 192.252 270.607 190.388 259.819C187.2 241.183 182.83 224.348 177.385 209.812L176.825 208.321L177.24 206.789C181.34 191.714 184.528 174.652 186.723 156.078C191.113 118.681 197.594 47.5949 198.029 -0.0100098H176.391C175.956 46.6631 169.578 116.673 165.23 153.552C164.712 157.9 164.153 162.145 163.532 166.266L161.875 177.385L154.835 168.626C138.29 147.981 116.589 136.324 90.3332 133.922C87.8484 133.694 85.3842 133.59 82.9408 133.59ZM84.0176 278.269C68.1355 278.269 56.1049 272.346 55.9185 272.243C38.4834 263.546 20.5513 243.668 22.5391 214.036C23.6366 197.471 32.437 180.243 45.4823 169.102C53.6821 162.103 68.0319 153.634 88.366 155.477C117.004 158.086 138.828 175.625 153.178 207.617L153.965 209.336L153.385 211.137C143.632 241.411 129.49 261.745 111.351 271.518C101.95 276.591 92.4452 278.269 84.0176 278.269Z" fill="black"></path><path d="M228.965 262.262C218.591 262.262 210.163 270.711 210.163 281.064C210.163 291.417 218.591 299.866 228.965 299.866C239.339 299.866 247.767 291.438 247.767 281.064C247.767 270.69 239.339 262.262 228.965 262.262Z" fill="black"></path></svg> 